<svg xmlns="http://www.w3.org/2000/svg" viewBox="0 0 22 18">
  <g id="Foundry-Web" stroke="none" stroke-width="1" fill="none" fill-rule="evenodd">
    <path d="M20.1562031,14.0502256 C21.0350787,14.0502256 21.7499493,13.3114579 21.7499493,12.4036918 L21.7499493,1.88429243 C21.7499493,0.976526348 21.0350787,0.237758579 20.1562031,0.237758579 L7.40623353,0.237758579 C6.52735799,0.237758579 5.81248733,0.976526348 5.81248733,1.88429243 L5.81248733,3.42525098 C6.59010007,3.42525098 7.30993173,3.65037671 7.93748227,4.01625871 L7.93748227,2.36275351 L19.6249544,2.36275351 L19.6249544,11.9252307 L10.7185616,11.9252307 C11.3527592,12.4794038 11.8182504,13.2112002 12.0364048,14.0502256 L20.1562031,14.0502256 Z M5.81248733,10.8627332 C7.57289726,10.8627332 8.99997973,9.43565077 8.99997973,7.67524085 C8.99997973,5.91483092 7.57289726,4.48774845 5.81248733,4.48774845 C4.05207741,4.48774845 2.62499493,5.91483092 2.62499493,7.67524085 C2.62499493,9.43565077 4.05207741,10.8627332 5.81248733,10.8627332 Z M9.53122847,17.237718 C10.4114334,17.237718 11.1249747,16.5241768 11.1249747,15.6439718 C11.1249747,13.5900198 9.46018562,11.9252307 7.40623353,11.9252307 L7.2797442,11.9252307 C6.81720372,12.085604 6.32878821,12.1908551 5.81248733,12.1908551 C5.29618646,12.1908551 4.80777095,12.085604 4.34523047,11.9252307 L4.21874113,11.9252307 C2.16478905,11.9252307 0.5,13.5900198 0.5,15.6439718 C0.5,16.5241768 1.21354124,17.237718 2.0937462,17.237718 L9.53122847,17.237718 Z" id="facilitator" fill="#3DB0C7" fill-rule="nonzero"></path>
  </g>
</svg>

