<svg xmlns="http://www.w3.org/2000/svg" viewBox="0 0 18 19">
  <g id="Symbols" stroke="none" stroke-width="1" fill="none" fill-rule="evenodd">
    <g id="ClientProfile" transform="translate(-43.000000, -576.000000)" fill="#3DB0C7" fill-rule="nonzero">
      <path d="M53.0338488,579.264893 C51.4880688,579.264893 50.2114237,578.261536 48.2679705,578.261536 C47.5481142,578.261536 46.9032868,578.387998 46.3051326,578.608065 C46.3880299,578.391567 46.4233111,578.15975 46.408575,577.928392 C46.3574595,577.108122 45.6850264,576.45017 44.8638335,576.416766 C43.9409579,576.379208 43.1810054,577.116228 43.1810054,578.030767 C43.1810054,578.579594 43.4549575,579.064181 43.8733136,579.356104 L43.8733136,590.492314 C43.8733136,590.87467 44.1832657,591.184622 44.5656218,591.184622 L45.0271606,591.184622 C45.4095166,591.184622 45.7194687,590.87467 45.7194687,590.492314 L45.7194687,587.769235 C46.5361327,587.421235 47.5535661,587.1311 49.0204806,587.1311 C50.5662894,587.1311 51.8429056,588.134457 53.7863589,588.134457 C55.1758502,588.134457 56.2863702,587.664437 57.3201594,586.95586 C57.5706307,586.784196 57.719477,586.499167 57.719477,586.195532 L57.719477,579.183027 C57.719477,578.508229 57.0194092,578.061777 56.4074088,578.346027 C55.4168889,578.806066 54.2020034,579.264893 53.0338488,579.264893 Z" id="flag_solid"></path>
    </g>
  </g>
</svg>

