<svg xmlns="http://www.w3.org/2000/svg" viewBox="0 0 18 19">
  <path d="M16,0.776191057 C16.345178,0.776191057 16.657678,0.916102073 16.8838835,1.14230758 C17.110089,1.36851309 17.25,1.68101309 17.25,2.02619106 L17.25,2.02619106 L17.25,16.0261911 C17.25,16.371369 17.110089,16.683869 16.8838835,16.9100745 C16.657678,17.13628 16.345178,17.2761911 16,17.2761911 L16,17.2761911 L2,17.2761911 C1.65482203,17.2761911 1.34232203,17.13628 1.11611652,16.9100745 C0.889911016,16.683869 0.75,16.371369 0.75,16.0261911 L0.75,16.0261911 L0.75,2.02619106 C0.75,1.68101309 0.889911016,1.36851309 1.11611652,1.14230758 C1.34232203,0.916102073 1.65482203,0.776191057 2,0.776191057 L2,0.776191057 Z M5.47235142,3.54803763 C4.96554039,3.52741224 4.50354456,3.7193495 4.16767286,4.04148418 C3.83012849,4.36522312 3.62003082,4.82078816 3.62003082,5.32541805 C3.62003082,5.77901696 3.78982007,6.19291863 4.06941429,6.50706376 L4.61600508,14.2334507 C4.8266956,14.3598651 5.04424988,14.8418754 6.73684545,13.6630705 L6.73684545,12.0532369 C7.10097534,11.9452768 7.53723335,11.8716618 8.08934753,11.8716618 C8.47278919,11.8716618 8.82202865,12.0017552 9.19273467,12.1253316 C9.76841504,12.317237 10.380212,12.5107261 11.1248619,12.5107261 C12.1743861,12.5107261 13.0171623,12.1650127 13.7996547,11.6286786 C14.1629617,11.3796817 14.3799692,10.966583 14.3799692,10.5257737 L14.3799692,6.05932328 C14.3799692,5.57025334 14.1262322,5.16397562 13.7616819,4.93142002 C13.3971985,4.69890711 12.9218305,4.64002333 12.4783467,4.84600417 C11.9402273,5.09592928 11.2825257,5.36146556 10.6455682,5.36146556 C10.2621361,5.36146556 9.91289912,5.23137321 9.5421941,5.10779766 C9.03493841,4.93870257 8.49974499,4.76370284 7.08658895,4.76297861 C6.99608976,4.4924818 6.84214217,4.25039128 6.64230762,4.05484068 C6.33675868,3.75584195 5.92473523,3.56643936 5.47235142,3.54803763 Z" id="flag_checkbox" stroke="#3DB0C7" stroke-width="1.5" fill="#3DB0C7" />
</svg>

