<svg xmlns="http://www.w3.org/2000/svg" viewBox="0 0 36 36">
  <path d="M22.8856 13.2048C22.0856 8.27893 20.1987 4.82031 18.0028 4.82031C15.807 4.82031 13.9201 8.27893 13.1201 13.2048H22.8856ZM12.7063 18.5003C12.7063 19.7249 12.7725 20.8998 12.8883 22.0306H23.1118C23.2277 20.8998 23.2939 19.7249 23.2939 18.5003C23.2939 17.2757 23.2277 16.1008 23.1118 14.97H12.8883C12.7725 16.1008 12.7063 17.2757 12.7063 18.5003ZM30.6208 13.2048C29.0428 9.45938 25.8483 6.56341 21.9035 5.39399C23.2497 7.25844 24.1766 10.0662 24.6621 13.2048H30.6208ZM14.0966 5.39399C10.1573 6.56341 6.95731 9.45938 5.3849 13.2048H11.3435C11.8235 10.0662 12.7504 7.25844 14.0966 5.39399ZM31.2111 14.97H24.8828C24.9987 16.1284 25.0649 17.3143 25.0649 18.5003C25.0649 19.6863 24.9987 20.8722 24.8828 22.0306H31.2056C31.509 20.8998 31.6801 19.7249 31.6801 18.5003C31.6801 17.2757 31.509 16.1008 31.2111 14.97ZM10.9408 18.5003C10.9408 17.3143 11.007 16.1284 11.1228 14.97H4.79455C4.49662 16.1008 4.32007 17.2757 4.32007 18.5003C4.32007 19.7249 4.49662 20.8998 4.79455 22.0306H11.1173C11.007 20.8722 10.9408 19.6863 10.9408 18.5003ZM13.1201 23.7958C13.9201 28.7217 15.807 32.1803 18.0028 32.1803C20.1987 32.1803 22.0856 28.7217 22.8856 23.7958H13.1201ZM21.909 31.6066C25.8483 30.4372 29.0483 27.5412 30.6263 23.7958H24.6677C24.1821 26.9345 23.2552 29.7422 21.909 31.6066ZM5.3849 23.7958C6.96283 27.5412 10.1573 30.4372 14.1021 31.6066C12.7559 29.7422 11.829 26.9345 11.3435 23.7958H5.3849Z" fill="currentColor"/>
</svg>

