<svg xmlns="http://www.w3.org/2000/svg" viewBox="0 0 25 19">
  <g id="lh_menu/service-provider" transform="translate(-33.000000, -294.000000)" fill-rule="nonzero">
    <path d="M45.4999702,303.500018 C47.9179484,303.500018 49.8749598,301.543007 49.8749598,299.125028 C49.8749598,296.70705 47.9179484,294.750039 45.4999702,294.750039 C43.081992,294.750039 41.1249806,296.70705 41.1249806,299.125028 C41.1249806,301.543007 43.081992,303.500018 45.4999702,303.500018 Z M54.2499493,302.250021 C55.9765153,302.250021 57.3749419,300.851594 57.3749419,299.125028 C57.3749419,297.398462 55.9765153,296.000036 54.2499493,296.000036 C52.5233833,296.000036 51.1249568,297.398462 51.1249568,299.125028 C51.1249568,300.851594 52.5233833,302.250021 54.2499493,302.250021 Z M36.7499911,302.250021 C38.4765571,302.250021 39.8749836,300.851594 39.8749836,299.125028 C39.8749836,297.398462 38.4765571,296.000036 36.7499911,296.000036 C35.023425,296.000036 33.6249985,297.398462 33.6249985,299.125028 C33.6249985,300.851594 35.023425,302.250021 36.7499911,302.250021 Z M45.4999762,301.625022 C44.1210749,301.625022 42.9999762,300.503924 42.9999762,299.125034 C42.9999762,297.746133 44.1210749,296.625034 45.4999762,296.625034 C46.8788655,296.625034 47.9999642,297.746133 47.9999642,299.125034 C47.9999642,300.503924 46.8788655,301.625022 45.4999762,301.625022 Z M54.2499493,300.375031 C53.5624662,300.375031 52.9999523,299.812511 52.9999523,299.125028 C52.9999523,298.437545 53.5624662,297.875031 54.2499493,297.875031 C54.9374324,297.875031 55.4999523,298.437545 55.4999523,299.125028 C55.4999523,299.812511 54.9374324,300.375031 54.2499493,300.375031 Z M36.7499911,300.375031 C36.062508,300.375031 35.499994,299.812511 35.499994,299.125028 C35.499994,298.437545 36.062508,297.875031 36.7499911,297.875031 C37.4374742,297.875031 37.999994,298.437545 37.999994,299.125028 C37.999994,299.812511 37.4374742,300.375031 36.7499911,300.375031 Z M57.0585516,307.718758 C57.5741449,307.718758 57.9960571,307.296891 57.9960571,306.78126 C57.9999404,304.972678 56.52728,303.500018 54.7186982,303.500018 L53.7812005,303.500018 C53.1054284,303.500018 52.4765008,303.707041 51.9530874,304.058603 C52.4765008,304.453156 52.9374677,304.925796 53.2968113,305.472669 C53.44917,305.417967 53.6093106,305.375013 53.7773095,305.375013 L54.7148072,305.375013 C55.4882353,305.375013 56.1210539,306.007832 56.1210539,306.78126 C56.1210539,307.296891 56.5429202,307.718758 57.0585516,307.718758 C57.5741449,307.718758 57.9960571,307.296891 57.9960571,306.78126 C57.9960571,306.007832 57.5741449,305.375013 56.8007169,305.375013 L55.8632192,305.375013 C55.6913298,305.375013 55.5311892,305.417967 55.3827596,305.472669 C55.019487,304.925796 54.5585201,304.453156 54.0351066,304.058603 C54.5585201,303.707041 55.1874477,303.500018 55.8632192,303.500018 L56.8007169,303.500018 C58.6092986,303.500018 60.0819595,304.972678 60.0819595,306.78126 C60.0819595,307.296891 59.6600931,307.718758 59.1444617,307.718758 Z" />
  </g>
</svg>

