<svg xmlns="http://www.w3.org/2000/svg" viewBox="0 0 30 24">
  <path d="M15 12.375c.328.005.67-.108.952-.4l4.434-4.582c1.352-1.397 1.635-4.047-.27-5.673C18.393.246 16.115.92 15 2.07 13.886.92 11.608.246 9.888 1.72c-1.905 1.626-1.622 4.276-.27 5.673l4.43 4.582c.283.292.62.4.952.4zm0-2.493l-3.868-4.003c-.588-.602-.727-1.783.117-2.506.633-.54 1.622-.405 2.215.21L15 5.17l1.532-1.59c.593-.616 1.586-.75 2.215-.212.849.724.705 1.905.12 2.511L15 9.882zM6.375 23.16a.72.72 0 01-.719.718h-.732a.724.724 0 01-.562-.274l-2.636-3.324a5.064 5.064 0 01-1.101-3.144V8.534c0-1.72 1.294-3.225 3.014-3.337a3.237 3.237 0 013.455 3.225v.127l.001.35v.117l.001.265.007 2.555c1.32-.876 3.243-.714 4.348.719l3.226 4.191c.1.13.184.27.268.412l.055.091c.099-.17.202-.346.323-.503l3.226-4.191c1.091-1.415 3.01-1.608 4.348-.719l.006-2.252.001-.301v-.138l.001-.245v-.351l.001-.055v-.072a3.237 3.237 0 013.455-3.225c1.72.112 3.014 1.617 3.018 3.337v8.594c0 1.14-.39 2.255-1.1 3.144l-2.637 3.325a.704.704 0 01-.562.274h-.732a.72.72 0 01-.719-.72c0-.336.113-.66.324-.925l2.637-3.297a2.857 2.857 0 00.629-1.792V8.462c0-.52-.35-.997-.863-1.096a1.077 1.077 0 00-1.294 1.056V9.113l-.001.166v.372l-.001.203v.434l-.001.228v.714l-.001.244v.73l-.001.24v1.479l.001.46a1.436 1.436 0 01-.35.926l-3.437 4.16c-.795.96-2.35-.149-1.523-1.268l2.224-3.01a1.08 1.08 0 00-1.712-1.316l-3.22 4.187a2.878 2.878 0 00-.598 1.752v3.342a.72.72 0 01-.719.72h-1.437a.721.721 0 01-.72-.72V19.81c0-.634-.21-1.25-.597-1.752L9.75 13.87a1.08 1.08 0 00-1.712 1.316l2.224 3.01c.822 1.119-.728 2.228-1.523 1.267L5.3 15.304a1.412 1.412 0 01-.35-.925v-.291c-.004-1.072-.008-3.12-.011-4.437v-.372l-.001-.166v-.405l-.001-.1v-.186a1.08 1.08 0 00-1.294-1.056c-.512.095-.863.575-.863 1.096v8.675c0 .656.22 1.29.63 1.797l2.64 3.301c.207.261.324.589.324.926z"/>
</svg>

