<svg xmlns="http://www.w3.org/2000/svg"
    width="18"
    height="20"
    viewBox="0 0 18 20">
    <g>
        <clipPath id="clip-book-user-2">
            <path d="M17.75,14L17.75,1C17.75,0.375 17.375,0 16.75,0L4,0C1.875,0 0.25,1.625 0.25,3.75L0.25,16.25C0.25,18.375 1.875,20 4,20L16.75,20C17.25,20 17.75,19.625 17.75,19L17.75,18.375C17.75,18.125 17.625,17.875 17.375,17.625C17.25,17 17.25,15.25 17.375,14.75C17.625,14.625 17.75,14.375 17.75,14ZM9.625,2.5C11.0057,2.5 12.125,3.6193 12.125,5C12.125,6.3807 11.0057,7.5 9.625,7.5C8.2443,7.5 7.125,6.3807 7.125,5C7.125,3.6193 8.2443,2.5 9.625,2.5ZM5.25,11C5.25,9.7574 6.4254,8.75 7.875,8.75L8.0703,8.75C9.0662,9.1667 10.1877,9.1667 11.1836,8.75L11.377,8.75C12.8266,8.75 14.002,9.7574 14.002,11L14.002,11.75C14.002,12.1645 13.6113,12.5 13.127,12.5L6.125,12.5C5.6406,12.5 5.25,12.1641 5.25,11.75L5.25,11ZM15.125,17.5L4,17.5C3.25,17.5 2.75,17 2.75,16.25C2.75,15.5 3.375,15 4,15L15.125,15L15.125,17.5Z M 0,0"/>
        </clipPath>

        <path d="M17.75,14L17.75,1C17.75,0.375 17.375,0 16.75,0L4,0C1.875,0 0.25,1.625 0.25,3.75L0.25,16.25C0.25,18.375 1.875,20 4,20L16.75,20C17.25,20 17.75,19.625 17.75,19L17.75,18.375C17.75,18.125 17.625,17.875 17.375,17.625C17.25,17 17.25,15.25 17.375,14.75C17.625,14.625 17.75,14.375 17.75,14ZM9.625,2.5C11.0057,2.5 12.125,3.6193 12.125,5C12.125,6.3807 11.0057,7.5 9.625,7.5C8.2443,7.5 7.125,6.3807 7.125,5C7.125,3.6193 8.2443,2.5 9.625,2.5ZM5.25,11C5.25,9.7574 6.4254,8.75 7.875,8.75L8.0703,8.75C9.0662,9.1667 10.1877,9.1667 11.1836,8.75L11.377,8.75C12.8266,8.75 14.002,9.7574 14.002,11L14.002,11.75C14.002,12.1645 13.6113,12.5 13.127,12.5L6.125,12.5C5.6406,12.5 5.25,12.1641 5.25,11.75L5.25,11ZM15.125,17.5L4,17.5C3.25,17.5 2.75,17 2.75,16.25C2.75,15.5 3.375,15 4,15L15.125,15L15.125,17.5Z"
            clip-path="url(#clip-book-user-2)"/>

        <path d="M0,-2L18,-2A3,3 0,0 1,21 1L21,19A3,3 0,0 1,18 22L0,22A3,3 0,0 1,-3 19L-3,1A3,3 0,0 1,0 -2z"
            fill="#FF000000"
            stroke="none"/>
    </g>
</svg>
