<svg xmlns="http://www.w3.org/2000/svg" width="20" height="20" viewBox="0 0 20 20">
    <g>
        <clipPath id="clip-home">
            <path d="M9.736,4.272L3.3564,9.5263L3.3564,15.1972C3.3564,15.503 3.6043,15.7509 3.91,15.7509L7.7875,15.7408C8.0922,15.7393 8.3384,15.4919 8.3384,15.1872L8.3384,11.8754C8.3384,11.5697 8.5863,11.3218 8.892,11.3218L11.1066,11.3218C11.4123,11.3218 11.6602,11.5697 11.6602,11.8754L11.6602,15.1848C11.6597,15.3319 11.7179,15.4732 11.8217,15.5774C11.9256,15.6816 12.0667,15.7401 12.2138,15.7401L16.09,15.7509C16.3957,15.7509 16.6436,15.503 16.6436,15.1972L16.6436,9.5225L10.2654,4.272C10.1109,4.1474 9.8905,4.1474 9.736,4.272ZM19.8131,7.8433L11.0543,0.6298C10.4412,0.1252 9.5567,0.1252 8.9436,0.6298L0.1848,7.8433C0.0999,7.9134 0.0463,8.0145 0.0359,8.1242C0.0255,8.2338 0.0592,8.3432 0.1294,8.428L1.0118,9.5007C1.0818,9.5859 1.1829,9.6397 1.2926,9.6503C1.4024,9.6608 1.5119,9.6273 1.5969,9.5571L9.736,2.8533C9.8905,2.7288 10.1109,2.7288 10.2654,2.8533L18.4048,9.5571C18.4897,9.6273 18.599,9.661 18.7087,9.6506C18.8184,9.6402 18.9194,9.5866 18.9896,9.5017L19.872,8.4291C19.9421,8.3437 19.9754,8.2339 19.9643,8.1239C19.9533,8.014 19.8989,7.913 19.8131,7.8433Z M 0,0"/>
        </clipPath>
        <path d="M9.736,4.272L3.3564,9.5263L3.3564,15.1972C3.3564,15.503 3.6043,15.7509 3.91,15.7509L7.7875,15.7408C8.0922,15.7393 8.3384,15.4919 8.3384,15.1872L8.3384,11.8754C8.3384,11.5697 8.5863,11.3218 8.892,11.3218L11.1066,11.3218C11.4123,11.3218 11.6602,11.5697 11.6602,11.8754L11.6602,15.1848C11.6597,15.3319 11.7179,15.4732 11.8217,15.5774C11.9256,15.6816 12.0667,15.7401 12.2138,15.7401L16.09,15.7509C16.3957,15.7509 16.6436,15.503 16.6436,15.1972L16.6436,9.5225L10.2654,4.272C10.1109,4.1474 9.8905,4.1474 9.736,4.272ZM19.8131,7.8433L11.0543,0.6298C10.4412,0.1252 9.5567,0.1252 8.9436,0.6298L0.1848,7.8433C0.0999,7.9134 0.0463,8.0145 0.0359,8.1242C0.0255,8.2338 0.0592,8.3432 0.1294,8.428L1.0118,9.5007C1.0818,9.5859 1.1829,9.6397 1.2926,9.6503C1.4024,9.6608 1.5119,9.6273 1.5969,9.5571L9.736,2.8533C9.8905,2.7288 10.1109,2.7288 10.2654,2.8533L18.4048,9.5571C18.4897,9.6273 18.599,9.661 18.7087,9.6506C18.8184,9.6402 18.9194,9.5866 18.9896,9.5017L19.872,8.4291C19.9421,8.3437 19.9754,8.2339 19.9643,8.1239C19.9533,8.014 19.8989,7.913 19.8131,7.8433Z" clip-path="url(#clip-home)"/>
        <path d="M1,-4L19,-4A3,3 0 0 1 22,-1L22,17A3,3 0 0 1 19,20L1,20A3,3 0 0 1 -2,17L-2,-1A3,3 0 0 1 1,-4z" fill="#FF000000"/>
    </g>
</svg>
