<svg xmlns="http://www.w3.org/2000/svg"
    width="27"
    height="24"
    viewBox="0 0 27 24">
    <path
        d="M4.5392,16.4489L8.243,13.671L16.7289,13.671C18.3079,13.6755 19.5918,12.3917 19.5918,10.8126L19.5918,3.6554C19.5918,2.0763 18.3079,0.7925 16.7289,0.7925L3.8458,0.7925C2.2668,0.7925 0.9829,2.0763 0.9829,3.6554L0.9829,10.8126C0.9829,12.3917 2.2668,13.6755 3.8458,13.6755L3.8458,16.1C3.8458,16.4579 4.2529,16.6636 4.5392,16.4489ZM22.4547,23.2617L22.4547,20.8328L23.8861,20.8328C25.4652,20.8328 26.749,19.5489 26.749,17.9699L26.749,10.8126C26.749,9.2335 25.4652,7.9497 23.8861,7.9497L21.0232,7.9497L21.0232,10.8126C21.0232,13.179 19.0952,15.107 16.7289,15.107L9.5716,15.107L9.5716,17.9699C9.5716,19.5489 10.8555,20.8328 12.4345,20.8328L18.0574,20.8328L21.7613,23.6106C22.0476,23.8254 22.4547,23.6196 22.4547,23.2617ZM4.5392,16.4489L8.243,13.671L16.7289,13.671C18.3079,13.6755 19.5918,12.3917 19.5918,10.8126L19.5918,3.6554C19.5918,2.0763 18.3079,0.7925 16.7289,0.7925L3.8458,0.7925C2.2668,0.7925 0.9829,2.0763 0.9829,3.6554L0.9829,10.8126C0.9829,12.3917 2.2668,13.6755 3.8458,13.6755L3.8458,16.1C3.8458,16.4579 4.2529,16.6636 4.5392,16.4489ZM22.4547,23.2617L22.4547,20.8328L23.8861,20.8328C25.4652,20.8328 26.749,19.5489 26.749,17.9699L26.749,10.8126C26.749,9.2335 25.4652,7.9497 23.8861,7.9497L21.0232,7.9497L21.0232,10.8126C21.0232,13.179 19.0952,15.107 16.7289,15.107L9.5716,15.107L9.5716,17.9699C9.5716,19.5489 10.8555,20.8328 12.4345,20.8328L18.0574,20.8328L21.7613,23.6106C22.0476,23.8254 22.4547,23.6196 22.4547,23.2617Z"
        stroke="none" />
</svg>