<svg xmlns="http://www.w3.org/2000/svg" width="20" height="20" viewBox="0 0 20 20">
    <g>
        <clipPath id="clip-urgent">
            <path d="M19.6875,10C19.6875,15.3514 15.3499,19.6875 10,19.6875C4.6501,19.6875 0.3125,15.3514 0.3125,10C0.3125,4.6517 4.6501,0.3125 10,0.3125C15.3499,0.3125 19.6875,4.6517 19.6875,10ZM10,11.9531C9.0076,11.9531 8.2031,12.7576 8.2031,13.75C8.2031,14.7424 9.0076,15.5469 10,15.5469C10.9924,15.5469 11.7969,14.7424 11.7969,13.75C11.7969,12.7576 10.9924,11.9531 10,11.9531ZM8.294,5.4943L8.5838,10.8068C8.5973,11.0554 8.8029,11.25 9.0518,11.25L10.9482,11.25C11.1971,11.25 11.4027,11.0554 11.4162,10.8068L11.706,5.4943C11.7206,5.2258 11.5068,5 11.2379,5L8.762,5C8.4931,5 8.2794,5.2258 8.294,5.4943L8.294,5.4943Z M 0,0"/>
        </clipPath>
        <path d="M19.6875,10C19.6875,15.3514 15.3499,19.6875 10,19.6875C4.6501,19.6875 0.3125,15.3514 0.3125,10C0.3125,4.6517 4.6501,0.3125 10,0.3125C15.3499,0.3125 19.6875,4.6517 19.6875,10ZM10,11.9531C9.0076,11.9531 8.2031,12.7576 8.2031,13.75C8.2031,14.7424 9.0076,15.5469 10,15.5469C10.9924,15.5469 11.7969,14.7424 11.7969,13.75C11.7969,12.7576 10.9924,11.9531 10,11.9531ZM8.294,5.4943L8.5838,10.8068C8.5973,11.0554 8.8029,11.25 9.0518,11.25L10.9482,11.25C11.1971,11.25 11.4027,11.0554 11.4162,10.8068L11.706,5.4943C11.7206,5.2258 11.5068,5 11.2379,5L8.762,5C8.4931,5 8.2794,5.2258 8.294,5.4943L8.294,5.4943Z" clip-path="url(#clip-urgent)"/>
        <path d="M1,-2L19,-2A3,3 0,0 1,22 1L22,19A3,3 0,0 1,19 22L1,22A3,3 0,0 1,-2 19L-2,1A3,3 0,0 1,1 -2z" fill="#FF000000"/>
    </g>
</svg>
