<svg xmlns="http://www.w3.org/2000/svg" viewBox="0 0 18 19">
  <g id="Foundry-Web" stroke="none" stroke-width="1" fill="none" fill-rule="evenodd">
    <g id="Create-Account---Zoom-Linked" transform="translate(-456.000000, -369.000000)" fill-rule="nonzero">
      <path d="M473.080919,387.21384 L473.876396,386.418364 C474.041121,386.253603 474.041121,385.986499 473.876396,385.821704 L457.515663,369.461007 C457.350903,369.296281 457.083799,369.296281 456.919004,369.461007 L456.123562,370.256483 C455.958836,370.421244 455.958836,370.688348 456.123562,370.853143 L472.484294,387.213875 C472.649054,387.378601 472.916158,387.378601 473.080919,387.21384 Z M470.270176,380.027872 L472.557284,377.74073 C474.480711,375.817372 474.481054,372.703854 472.557284,370.780152 C470.633892,368.856726 467.520477,368.856417 465.596741,370.780152 L463.309599,373.067294 C463.144873,373.232055 463.144873,373.499159 463.309599,373.663954 L464.105076,374.459431 C464.269801,374.624122 464.536906,374.624122 464.701666,374.459396 L466.962372,372.19869 C468.169836,370.991227 470.066174,371.022606 471.212114,372.220216 C472.308273,373.365813 472.312804,375.200937 471.165182,376.348594 L468.87804,378.63577 C468.713314,378.800496 468.713314,379.067601 468.87804,379.232395 L469.673517,380.027872 C469.838277,380.192598 470.105382,380.192598 470.270176,380.027872 Z M464.403251,385.894695 L466.690393,383.607587 C466.855119,383.442792 466.855119,383.175688 466.690393,383.010928 L465.894916,382.215485 C465.730121,382.050759 465.463017,382.050759 465.298291,382.215485 L463.011115,384.502627 C461.863046,385.65073 460.027475,385.645443 458.882222,384.54901 C457.685196,383.403036 457.653919,381.507143 458.861211,380.299852 L461.121951,378.039111 C461.286677,377.874351 461.286677,377.607246 461.121951,377.442486 L460.326474,376.647009 C460.16168,376.482283 459.894575,376.482283 459.729815,376.647009 L457.442707,378.934151 C455.519006,380.857887 455.519212,383.971199 457.442707,385.894695 C459.366409,387.818465 462.479893,387.818121 464.403251,385.894695 Z" />
    </g>
  </g>
</svg>

