<svg xmlns="http://www.w3.org/2000/svg" viewBox="0 0 27 28">
  <g id="Foundry-Web" stroke="none" stroke-width="1" fill="none" fill-rule="evenodd">
    <g id="Create-Account---Zoom-Linked" transform="translate(-185.000000, -365.000000)">
      <path d="M206.791107,378.867769 L206.789352,378.867769 C206.789352,377.509074 206.796548,376.150554 206.780051,374.792034 C206.778121,374.626892 206.688442,374.399448 206.563488,374.319948 C206.468369,374.259402 206.223551,374.346624 206.095965,374.438408 C204.957869,375.25675 203.823985,376.081408 202.709054,376.930812 C202.552336,377.050501 202.426505,377.311114 202.420011,377.510829 C202.38965,378.430081 202.391932,379.351438 202.418958,380.271041 C202.424399,380.458296 202.538998,380.704342 202.685011,380.815256 C203.77818,381.645531 204.887144,382.454922 206.004356,383.25273 C206.165111,383.36768 206.447134,383.485789 206.579283,383.418574 C206.711256,383.351359 206.779876,383.053716 206.782333,382.855756 C206.799356,381.526544 206.791107,380.196981 206.791107,378.867769 M196.740236,383.514922 C198.157372,383.514922 199.574684,383.515975 200.991819,383.514571 C201.78015,383.513693 201.888958,383.406991 201.889485,382.640597 C201.890362,380.755938 201.892117,378.871104 201.888958,376.986269 C201.886501,375.376263 200.778064,374.242203 199.170866,374.235885 C196.29272,374.224829 193.414399,374.230796 190.536078,374.234306 C189.906395,374.235008 189.767578,374.380495 189.7667,375.017372 C189.764068,376.931339 189.763541,378.845306 189.766349,380.759273 C189.768982,382.474226 190.80722,383.508604 192.532177,383.514044 C193.934922,383.518432 195.337491,383.514746 196.740236,383.514922 M198.395697,392.129001 C190.956217,392.065471 185.264157,386.25074 185.155525,379.118379 C185.039697,371.518319 191.031154,365.751147 198.099107,365.644971 C205.872909,365.528266 211.566899,371.474269 211.641485,378.688587 C211.72116,386.380256 205.800955,392.04564 198.395697,392.129001" id="zoom-logo"></path>
    </g>
  </g>
</svg>

